<?xml version="1.0" encoding="UTF-8" standalone="no"?>
<!DOCTYPE svg PUBLIC "-//W3C//DTD SVG 1.1//EN"
 "http://www.w3.org/Graphics/SVG/1.1/DTD/svg11.dtd">
<!-- Generated by graphviz version 16.0.0 (20260814.1018)
 -->
<!-- Title: piru_pipeline_overview Pages: 1 -->
<svg width="2715pt" height="1376pt"
 viewBox="0.00 0.00 2715.00 1376.00" xmlns="http://www.w3.org/2000/svg" xmlns:xlink="http://www.w3.org/1999/xlink">
<g id="graph0" class="graph" transform="scale(1 1) rotate(0) translate(4 1371.5)">
<title>piru_pipeline_overview</title>
<polygon fill="white" stroke="none" points="-4,4 -4,-1371.5 2710.82,-1371.5 2710.82,4 -4,4"/>
<g id="clust1" class="cluster">
<title>cluster_upstream</title>
<polygon fill="none" stroke="#888888" stroke-dasharray="5,2" points="24.38,-809 24.38,-1198 323.88,-1198 323.88,-809 24.38,-809"/>
<text xml:space="preserve" text-anchor="middle" x="174.12" y="-1183.55" font-family="Helvetica,sans-Serif" font-size="11.00">Upstream (network; `build.sh full`, or a fetcher run by hand)</text>
</g>
<g id="clust2" class="cluster">
<title>cluster_fetch</title>
<polygon fill="none" stroke="#888888" stroke-dasharray="5,2" points="390.25,-807 390.25,-1154 699.35,-1154 699.35,-807 390.25,-807"/>
<text xml:space="preserve" text-anchor="middle" x="544.8" y="-1139.55" font-family="Helvetica,sans-Serif" font-size="11.00">pipeline/fetch — snapshots into data/sources/</text>
</g>
<g id="clust3" class="cluster">
<title>cluster_inputs</title>
<polygon fill="none" stroke="#888888" stroke-dasharray="5,2" points="455.3,-532 455.3,-799 966.1,-799 966.1,-532 455.3,-532"/>
<text xml:space="preserve" text-anchor="middle" x="710.7" y="-784.55" font-family="Helvetica,sans-Serif" font-size="11.00">Committed inputs</text>
</g>
<g id="clust4" class="cluster">
<title>cluster_build</title>
<polygon fill="none" stroke="#888888" stroke-dasharray="5,2" points="778.98,-362 778.98,-524 2306.92,-524 2306.92,-362 778.98,-362"/>
<text xml:space="preserve" text-anchor="middle" x="1542.95" y="-509.55" font-family="Helvetica,sans-Serif" font-size="11.00">pipeline/build — `build.sh fast` (offline, reproducible)</text>
</g>
<g id="clust5" class="cluster">
<title>cluster_ship</title>
<polygon fill="none" stroke="#888888" stroke-dasharray="5,2" points="1532.69,-198 1532.69,-354 2669.08,-354 2669.08,-198 1532.69,-198"/>
<text xml:space="preserve" text-anchor="middle" x="2100.89" y="-339.55" font-family="Helvetica,sans-Serif" font-size="11.00">Shipped artifacts</text>
</g>
<g id="clust6" class="cluster">
<title>cluster_audit</title>
<polygon fill="none" stroke="#888888" stroke-dasharray="5,2" points="59,-8 59,-190 2698.82,-190 2698.82,-8 59,-8"/>
<text xml:space="preserve" text-anchor="middle" x="1378.91" y="-175.55" font-family="Helvetica,sans-Serif" font-size="11.00">pipeline/audit — standalone, read the built DB, never on the build path</text>
</g>
<g id="clust7" class="cluster">
<title>cluster_dead</title>
<polygon fill="none" stroke="#c03030" stroke-dasharray="5,2" points="8,-1206 8,-1306 339.25,-1306 339.25,-1206 8,-1206"/>
<text xml:space="preserve" text-anchor="middle" x="173.62" y="-1291.55" font-family="Helvetica,sans-Serif" font-size="11.00" fill="#c03030">Dead — zero references (DELETE&#45;CANDIDATES.md)</text>
</g>
<!-- web -->
<g id="node1" class="node">
<title>web</title>
<polygon fill="white" stroke="#444444" points="255.5,-925.88 95.75,-925.88 91.75,-921.88 91.75,-884.12 251.5,-884.12 255.5,-888.12 255.5,-925.88"/>
<polyline fill="none" stroke="#444444" points="251.5,-921.88 91.75,-921.88"/>
<polyline fill="none" stroke="#444444" points="251.5,-921.88 251.5,-884.12"/>
<polyline fill="none" stroke="#444444" points="251.5,-921.88 255.5,-925.88"/>
<text xml:space="preserve" text-anchor="middle" x="173.62" y="-912.38" font-family="Helvetica,sans-Serif" font-size="10.00">Web sources</text>
<text xml:space="preserve" text-anchor="middle" x="173.62" y="-901.12" font-family="Helvetica,sans-Serif" font-size="10.00">PsychonautWiki · TripSit · Erowid</text>
<text xml:space="preserve" text-anchor="middle" x="173.62" y="-889.88" font-family="Helvetica,sans-Serif" font-size="10.00">Wikidata · PubChem · DEA</text>
</g>
<!-- collector -->
<g id="node7" class="node">
<title>collector</title>
<ellipse fill="white" stroke="#444444" cx="544.8" cy="-905" rx="94.05" ry="21.57"/>
<text xml:space="preserve" text-anchor="middle" x="544.8" y="-906.75" font-family="Helvetica,sans-Serif" font-size="10.00">SubstanceCollector (Swift)</text>
<text xml:space="preserve" text-anchor="middle" x="544.8" y="-895.5" font-family="Helvetica,sans-Serif" font-size="10.00">build.sh full step 2</text>
</g>
<!-- web&#45;&gt;collector -->
<g id="edge1" class="edge">
<title>web&#45;&gt;collector</title>
<path fill="none" stroke="#555555" d="M255.64,-905C310.48,-905 383.34,-905 442.08,-905"/>
<polygon fill="#555555" stroke="#555555" points="441.75,-907.45 448.75,-905 441.75,-902.55 441.75,-907.45"/>
</g>
<!-- fetch_pw -->
<g id="node8" class="node">
<title>fetch_pw</title>
<ellipse fill="white" stroke="#444444" cx="544.8" cy="-981" rx="116.32" ry="29.52"/>
<text xml:space="preserve" text-anchor="middle" x="544.8" y="-988.38" font-family="Helvetica,sans-Serif" font-size="10.00">psychonautwiki.py · subfxonex.py</text>
<text xml:space="preserve" text-anchor="middle" x="544.8" y="-977.12" font-family="Helvetica,sans-Serif" font-size="10.00">dosewiki.py · product_codes.py</text>
<text xml:space="preserve" text-anchor="middle" x="544.8" y="-965.88" font-family="Helvetica,sans-Serif" font-size="10.00">build.sh full steps 1, 1b, 1c, 2b</text>
</g>
<!-- web&#45;&gt;fetch_pw -->
<g id="edge3" class="edge">
<title>web&#45;&gt;fetch_pw</title>
<path fill="none" stroke="#555555" d="M255.64,-921.68C311.39,-933.15 385.77,-948.47 445,-960.66"/>
<polygon fill="#555555" stroke="#555555" points="444.42,-963.04 451.77,-962.05 445.41,-958.24 444.42,-963.04"/>
</g>
<!-- dw_api -->
<g id="node2" class="node">
<title>dw_api</title>
<polygon fill="white" stroke="#444444" points="235.62,-987 115.62,-987 111.62,-983 111.62,-951 231.62,-951 235.62,-955 235.62,-987"/>
<polyline fill="none" stroke="#444444" points="231.62,-983 111.62,-983"/>
<polyline fill="none" stroke="#444444" points="231.62,-983 231.62,-951"/>
<polyline fill="none" stroke="#444444" points="231.62,-983 235.62,-987"/>
<text xml:space="preserve" text-anchor="middle" x="173.62" y="-970.75" font-family="Helvetica,sans-Serif" font-size="10.00">dose.wiki API</text>
<text xml:space="preserve" text-anchor="middle" x="173.62" y="-959.5" font-family="Helvetica,sans-Serif" font-size="10.00">(CC0, published articles)</text>
</g>
<!-- dw_api&#45;&gt;fetch_pw -->
<g id="edge2" class="edge">
<title>dw_api&#45;&gt;fetch_pw</title>
<path fill="none" stroke="#555555" d="M236,-971C286.14,-972.62 358.59,-974.98 420.6,-977"/>
<polygon fill="#555555" stroke="#555555" points="420.3,-979.44 427.38,-977.22 420.46,-974.54 420.3,-979.44"/>
</g>
<!-- dc_export -->
<g id="node3" class="node">
<title>dc_export</title>
<polygon fill="white" stroke="#444444" points="231.5,-1170 119.75,-1170 115.75,-1166 115.75,-1134 227.5,-1134 231.5,-1138 231.5,-1170"/>
<polyline fill="none" stroke="#444444" points="227.5,-1166 115.75,-1166"/>
<polyline fill="none" stroke="#444444" points="227.5,-1166 227.5,-1134"/>
<polyline fill="none" stroke="#444444" points="227.5,-1166 231.5,-1170"/>
<text xml:space="preserve" text-anchor="middle" x="173.62" y="-1153.75" font-family="Helvetica,sans-Serif" font-size="10.00">drug.community export</text>
<text xml:space="preserve" text-anchor="middle" x="173.62" y="-1142.5" font-family="Helvetica,sans-Serif" font-size="10.00">(manual snapshot)</text>
</g>
<!-- fetch_hand -->
<g id="node9" class="node">
<title>fetch_hand</title>
<ellipse fill="#eeeeee" stroke="#444444" cx="544.8" cy="-1081" rx="146.55" ry="45.43"/>
<text xml:space="preserve" text-anchor="middle" x="544.8" y="-1099.62" font-family="Helvetica,sans-Serif" font-size="10.00">fetch_drug_community.py · fetch_tripsit.py</text>
<text xml:space="preserve" text-anchor="middle" x="544.8" y="-1088.38" font-family="Helvetica,sans-Serif" font-size="10.00">fetch_pubchem_*.py · freeodwiki_extract.py</text>
<text xml:space="preserve" text-anchor="middle" x="544.8" y="-1077.12" font-family="Helvetica,sans-Serif" font-size="10.00">wikipedia_popularity · pubmed_pubtypes</text>
<text xml:space="preserve" text-anchor="middle" x="544.8" y="-1065.88" font-family="Helvetica,sans-Serif" font-size="10.00">reconcile_identifiers_pubchem.py</text>
<text xml:space="preserve" text-anchor="middle" x="544.8" y="-1054.62" font-family="Helvetica,sans-Serif" font-size="10.00">(13 fetchers build.sh never calls)</text>
</g>
<!-- dc_export&#45;&gt;fetch_hand -->
<g id="edge4" class="edge">
<title>dc_export&#45;&gt;fetch_hand</title>
<path fill="none" stroke="#555555" d="M231.82,-1142.4C287.97,-1132.97 365.25,-1120 365.25,-1120 365.25,-1120 387.34,-1115.18 415.97,-1108.92"/>
<polygon fill="#555555" stroke="#555555" points="416.41,-1111.33 422.73,-1107.44 415.37,-1106.55 416.41,-1111.33"/>
</g>
<!-- freeod -->
<g id="node4" class="node">
<title>freeod</title>
<polygon fill="white" stroke="#444444" points="216.5,-1109 134.75,-1109 130.75,-1105 130.75,-1073 212.5,-1073 216.5,-1077 216.5,-1109"/>
<polyline fill="none" stroke="#444444" points="212.5,-1105 130.75,-1105"/>
<polyline fill="none" stroke="#444444" points="212.5,-1105 212.5,-1073"/>
<polyline fill="none" stroke="#444444" points="212.5,-1105 216.5,-1109"/>
<text xml:space="preserve" text-anchor="middle" x="173.62" y="-1092.75" font-family="Helvetica,sans-Serif" font-size="10.00">FreeOD Wiki</text>
<text xml:space="preserve" text-anchor="middle" x="173.62" y="-1081.5" font-family="Helvetica,sans-Serif" font-size="10.00">(zh, CC BY&#45;SA)</text>
</g>
<!-- freeod&#45;&gt;fetch_hand -->
<g id="edge5" class="edge">
<title>freeod&#45;&gt;fetch_hand</title>
<path fill="none" stroke="#555555" d="M216.97,-1089.85C259.39,-1088.7 327.22,-1086.87 390.13,-1085.16"/>
<polygon fill="#555555" stroke="#555555" points="390.13,-1087.61 397.06,-1084.97 389.99,-1082.72 390.13,-1087.61"/>
</g>
<!-- pubchem -->
<g id="node5" class="node">
<title>pubchem</title>
<polygon fill="white" stroke="#444444" points="250.25,-1048 101,-1048 97,-1044 97,-1012 246.25,-1012 250.25,-1016 250.25,-1048"/>
<polyline fill="none" stroke="#444444" points="246.25,-1044 97,-1044"/>
<polyline fill="none" stroke="#444444" points="246.25,-1044 246.25,-1012"/>
<polyline fill="none" stroke="#444444" points="246.25,-1044 250.25,-1048"/>
<text xml:space="preserve" text-anchor="middle" x="173.62" y="-1031.75" font-family="Helvetica,sans-Serif" font-size="10.00">PubChem PUG REST</text>
<text xml:space="preserve" text-anchor="middle" x="173.62" y="-1020.5" font-family="Helvetica,sans-Serif" font-size="10.00">PubMed · Wikipedia pageviews</text>
</g>
<!-- pubchem&#45;&gt;fetch_hand -->
<g id="edge6" class="edge">
<title>pubchem&#45;&gt;fetch_hand</title>
<path fill="none" stroke="#555555" d="M250.67,-1040.51C294.35,-1046.54 350.6,-1054.31 402.13,-1061.43"/>
<polygon fill="#555555" stroke="#555555" points="401.59,-1063.83 408.86,-1062.36 402.26,-1058.97 401.59,-1063.83"/>
</g>
<!-- private -->
<g id="node6" class="node">
<title>private</title>
<polygon fill="white" stroke="#444444" points="257.38,-858.88 93.88,-858.88 89.88,-854.88 89.88,-817.12 253.38,-817.12 257.38,-821.12 257.38,-858.88"/>
<polyline fill="none" stroke="#444444" points="253.38,-854.88 89.88,-854.88"/>
<polyline fill="none" stroke="#444444" points="253.38,-854.88 253.38,-817.12"/>
<polyline fill="none" stroke="#444444" points="253.38,-854.88 257.38,-858.88"/>
<text xml:space="preserve" text-anchor="middle" x="173.62" y="-845.38" font-family="Helvetica,sans-Serif" font-size="10.00">~/Developer/piru&#45;data</text>
<text xml:space="preserve" text-anchor="middle" x="173.62" y="-834.12" font-family="Helvetica,sans-Serif" font-size="10.00">DrugBank · MedTAP · Pyrls · NPS</text>
<text xml:space="preserve" text-anchor="middle" x="173.62" y="-822.88" font-family="Helvetica,sans-Serif" font-size="10.00">(private, never shipped)</text>
</g>
<!-- extract -->
<g id="node10" class="node">
<title>extract</title>
<ellipse fill="white" stroke="#444444" cx="544.8" cy="-837" rx="81.32" ry="21.57"/>
<text xml:space="preserve" text-anchor="middle" x="544.8" y="-838.75" font-family="Helvetica,sans-Serif" font-size="10.00">brushers/extract.py</text>
<text xml:space="preserve" text-anchor="middle" x="544.8" y="-827.5" font-family="Helvetica,sans-Serif" font-size="10.00">build.sh step 3 (offline)</text>
</g>
<!-- private&#45;&gt;extract -->
<g id="edge7" class="edge">
<title>private&#45;&gt;extract</title>
<path fill="none" stroke="#555555" d="M257.47,-837.78C316.15,-837.62 394.78,-837.4 454.79,-837.24"/>
<polygon fill="#555555" stroke="#555555" points="454.62,-839.69 461.62,-837.22 454.61,-834.79 454.62,-839.69"/>
</g>
<!-- intermediate -->
<g id="node12" class="node">
<title>intermediate</title>
<polygon fill="white" stroke="#444444" points="920.6,-637 795.85,-637 795.85,-601 920.6,-601 920.6,-637"/>
<text xml:space="preserve" text-anchor="middle" x="858.22" y="-620.75" font-family="Helvetica,sans-Serif" font-size="10.00">data/intermediate/</text>
<text xml:space="preserve" text-anchor="middle" x="858.22" y="-609.5" font-family="Helvetica,sans-Serif" font-size="10.00">sourced&#45;substances.json</text>
</g>
<!-- collector&#45;&gt;intermediate -->
<g id="edge8" class="edge">
<title>collector&#45;&gt;intermediate</title>
<path fill="none" stroke="#555555" d="M621.22,-892.23C660.05,-885.65 699.35,-879 699.35,-879 699.35,-879 758.35,-717 758.35,-717 758.35,-717 803.35,-672.39 832.63,-643.37"/>
<polygon fill="#555555" stroke="#555555" points="834.3,-645.17 837.55,-638.5 830.85,-641.69 834.3,-645.17"/>
</g>
<!-- sources -->
<g id="node11" class="node">
<title>sources</title>
<polygon fill="white" stroke="#444444" points="958.1,-770.88 758.35,-770.88 758.35,-729.12 958.1,-729.12 958.1,-770.88"/>
<text xml:space="preserve" text-anchor="middle" x="858.22" y="-757.38" font-family="Helvetica,sans-Serif" font-size="10.00">data/sources/*.json</text>
<text xml:space="preserve" text-anchor="middle" x="858.22" y="-746.12" font-family="Helvetica,sans-Serif" font-size="10.00">18 source snapshots + caches</text>
<text xml:space="preserve" text-anchor="middle" x="858.22" y="-734.88" font-family="Helvetica,sans-Serif" font-size="10.00">(PubChem, ChEMBL, Europe PMC, links)</text>
</g>
<!-- fetch_pw&#45;&gt;sources -->
<g id="edge9" class="edge">
<title>fetch_pw&#45;&gt;sources</title>
<path fill="none" stroke="#555555" d="M633.34,-961.62C667.82,-953.98 699.35,-947 699.35,-947 699.35,-947 791.54,-831.95 835.02,-777.7"/>
<polygon fill="#555555" stroke="#555555" points="836.91,-779.26 839.38,-772.26 833.09,-776.19 836.91,-779.26"/>
</g>
<!-- fetch_hand&#45;&gt;sources -->
<g id="edge10" class="edge">
<title>fetch_hand&#45;&gt;sources</title>
<path fill="none" stroke="#555555" d="M647.79,-1048.45C676.15,-1039.4 699.35,-1032 699.35,-1032 699.35,-1032 801.09,-850.26 841.22,-778.58"/>
<polygon fill="#555555" stroke="#555555" points="843.33,-779.82 844.62,-772.52 839.06,-777.43 843.33,-779.82"/>
</g>
<!-- ext_extract -->
<g id="node15" class="node">
<title>ext_extract</title>
<polygon fill="white" stroke="#444444" points="947.22,-576 769.22,-576 769.22,-540 947.22,-540 947.22,-576"/>
<text xml:space="preserve" text-anchor="middle" x="858.22" y="-559.75" font-family="Helvetica,sans-Serif" font-size="10.00">/tmp/piru&#45;extract/*.json</text>
<text xml:space="preserve" text-anchor="middle" x="858.22" y="-548.5" font-family="Helvetica,sans-Serif" font-size="10.00">(from piru&#45;data; build warns if absent)</text>
</g>
<!-- extract&#45;&gt;ext_extract -->
<g id="edge11" class="edge">
<title>extract&#45;&gt;ext_extract</title>
<path fill="none" stroke="#555555" d="M614.04,-825.44C655.05,-818.5 699.35,-811 699.35,-811 699.35,-811 758.35,-650 758.35,-650 758.35,-650 802.38,-609.02 831.68,-581.77"/>
<polygon fill="#555555" stroke="#555555" points="833.12,-583.77 836.58,-577.21 829.78,-580.18 833.12,-583.77"/>
</g>
<!-- sqlite -->
<g id="node17" class="node">
<title>sqlite</title>
<ellipse fill="#e8f0ff" stroke="#444444" cx="1211.89" cy="-433" rx="146.55" ry="63.46"/>
<text xml:space="preserve" text-anchor="middle" x="1211.89" y="-464.38" font-family="Helvetica,sans-Serif" font-size="10.00">sqlite.py &#160;(15k lines)</text>
<text xml:space="preserve" text-anchor="middle" x="1211.89" y="-453.12" font-family="Helvetica,sans-Serif" font-size="10.00">step 6 — ingest in priority order:</text>
<text xml:space="preserve" text-anchor="middle" x="1211.89" y="-441.88" font-family="Helvetica,sans-Serif" font-size="10.00">curated → sourced → PW → dc → FreeOD</text>
<text xml:space="preserve" text-anchor="middle" x="1211.89" y="-429.12" font-family="Helvetica,sans-Serif" font-size="10.00">→ enrichment → external → dose.wiki</text>
<text xml:space="preserve" text-anchor="middle" x="1211.89" y="-416.38" font-family="Helvetica,sans-Serif" font-size="10.00">then gates, dedup, PubChem reconciliation,</text>
<text xml:space="preserve" text-anchor="middle" x="1211.89" y="-405.12" font-family="Helvetica,sans-Serif" font-size="10.00">dose.wiki identity corrections, classify,</text>
<text xml:space="preserve" text-anchor="middle" x="1211.89" y="-393.88" font-family="Helvetica,sans-Serif" font-size="10.00">therapeutic&#45;dose suppression, finalize</text>
</g>
<!-- sources&#45;&gt;sqlite -->
<g id="edge14" class="edge">
<title>sources&#45;&gt;sqlite</title>
<path fill="none" stroke="#555555" d="M950.33,-728.69C959.83,-726.47 966.1,-725 966.1,-725 966.1,-725 1032.35,-689 1032.35,-689 1032.35,-689 1110.74,-576.6 1163.64,-500.76"/>
<polygon fill="#555555" stroke="#555555" points="1165.49,-502.38 1167.49,-495.23 1161.47,-499.57 1165.49,-502.38"/>
</g>
<!-- adjudicate -->
<g id="node25" class="node">
<title>adjudicate</title>
<ellipse fill="#eeeeee" stroke="#444444" cx="2168.81" cy="-131" rx="119.5" ry="30.58"/>
<text xml:space="preserve" text-anchor="middle" x="2168.81" y="-139.12" font-family="Helvetica,sans-Serif" font-size="10.00">adjudicate.py</text>
<text xml:space="preserve" text-anchor="middle" x="2168.81" y="-127.88" font-family="Helvetica,sans-Serif" font-size="10.00">scores every claim of every source</text>
<text xml:space="preserve" text-anchor="middle" x="2168.81" y="-116.62" font-family="Helvetica,sans-Serif" font-size="10.00">→ data/adjudication/ (gitignored)</text>
</g>
<!-- sources&#45;&gt;adjudicate -->
<g id="edge28" class="edge">
<title>sources&#45;&gt;adjudicate</title>
<path fill="none" stroke="#555555" stroke-dasharray="5,2" d="M950.33,-728.69C959.83,-726.47 966.1,-725 966.1,-725 966.1,-725 1391.44,-356 1391.44,-356 1391.44,-356 1735.94,-192 1735.94,-192 1735.94,-192 1926.97,-165.02 2054.93,-146.94"/>
<polygon fill="#555555" stroke="#555555" points="2055.18,-149.38 2061.77,-145.98 2054.49,-144.53 2055.18,-149.38"/>
</g>
<!-- intermediate&#45;&gt;sqlite -->
<g id="edge15" class="edge">
<title>intermediate&#45;&gt;sqlite</title>
<path fill="none" stroke="#555555" d="M921.08,-606.27C944.72,-601.4 966.1,-597 966.1,-597 966.1,-597 1054.16,-538 1124.65,-490.78"/>
<polygon fill="#555555" stroke="#555555" points="1125.71,-493.02 1130.16,-487.09 1122.98,-488.95 1125.71,-493.02"/>
</g>
<!-- curated -->
<g id="node13" class="node">
<title>curated</title>
<polygon fill="#fff5d6" stroke="#444444" points="626.3,-593.5 463.3,-593.5 463.3,-540.5 626.3,-540.5 626.3,-593.5"/>
<text xml:space="preserve" text-anchor="middle" x="544.8" y="-580" font-family="Helvetica,sans-Serif" font-size="10.00">data/curated/</text>
<text xml:space="preserve" text-anchor="middle" x="544.8" y="-568.75" font-family="Helvetica,sans-Serif" font-size="10.00">739 substance files + 40 rule files</text>
<text xml:space="preserve" text-anchor="middle" x="544.8" y="-557.5" font-family="Helvetica,sans-Serif" font-size="10.00">(exceptions, class gates, ids,</text>
<text xml:space="preserve" text-anchor="middle" x="544.8" y="-546.25" font-family="Helvetica,sans-Serif" font-size="10.00">identifier corrections, half&#45;lives…)</text>
</g>
<!-- validate -->
<g id="node16" class="node">
<title>validate</title>
<ellipse fill="white" stroke="#444444" cx="858.22" cy="-463" rx="71.24" ry="21.57"/>
<text xml:space="preserve" text-anchor="middle" x="858.22" y="-464.75" font-family="Helvetica,sans-Serif" font-size="10.00">validate_curated.py</text>
<text xml:space="preserve" text-anchor="middle" x="858.22" y="-453.5" font-family="Helvetica,sans-Serif" font-size="10.00">step 5</text>
</g>
<!-- curated&#45;&gt;validate -->
<g id="edge12" class="edge">
<title>curated&#45;&gt;validate</title>
<path fill="none" stroke="#555555" d="M626.62,-551.21C663.61,-543.98 699.35,-537 699.35,-537 699.35,-537 764.04,-506.68 810.6,-484.85"/>
<polygon fill="#555555" stroke="#555555" points="811.53,-487.12 816.83,-481.93 809.45,-482.69 811.53,-487.12"/>
</g>
<!-- enrichment -->
<g id="node14" class="node">
<title>enrichment</title>
<polygon fill="white" stroke="#444444" points="937.1,-703.88 779.35,-703.88 779.35,-662.12 937.1,-662.12 937.1,-703.88"/>
<text xml:space="preserve" text-anchor="middle" x="858.22" y="-690.38" font-family="Helvetica,sans-Serif" font-size="10.00">data/enrichment/raw/*.json</text>
<text xml:space="preserve" text-anchor="middle" x="858.22" y="-679.12" font-family="Helvetica,sans-Serif" font-size="10.00">LLM swarm output, per class</text>
<text xml:space="preserve" text-anchor="middle" x="858.22" y="-667.88" font-family="Helvetica,sans-Serif" font-size="10.00">(cited bindings, PK, metabolism)</text>
</g>
<!-- enrichment&#45;&gt;sqlite -->
<g id="edge16" class="edge">
<title>enrichment&#45;&gt;sqlite</title>
<path fill="none" stroke="#555555" d="M937.46,-664.7C953.75,-660.89 966.1,-658 966.1,-658 966.1,-658 1070.03,-562.47 1142.46,-495.9"/>
<polygon fill="#555555" stroke="#555555" points="1143.88,-497.92 1147.37,-491.38 1140.56,-494.32 1143.88,-497.92"/>
</g>
<!-- ext_extract&#45;&gt;sqlite -->
<g id="edge17" class="edge">
<title>ext_extract&#45;&gt;sqlite</title>
<path fill="none" stroke="#555555" d="M947.48,-539.83C958.56,-537.55 966.1,-536 966.1,-536 966.1,-536 991.1,-515 991.1,-515 991.1,-515 1040.43,-496.59 1092.35,-477.22"/>
<polygon fill="#555555" stroke="#555555" points="1092.91,-479.63 1098.61,-474.89 1091.2,-475.04 1092.91,-479.63"/>
</g>
<!-- validate&#45;&gt;sqlite -->
<g id="edge13" class="edge">
<title>validate&#45;&gt;sqlite</title>
<path fill="none" stroke="#555555" d="M927.03,-457.22C964.68,-454 1013.14,-449.87 1059.31,-445.93"/>
<polygon fill="#555555" stroke="#555555" points="1059.33,-448.39 1066.09,-445.35 1058.91,-443.51 1059.33,-448.39"/>
</g>
<!-- gates -->
<g id="node18" class="node">
<title>gates</title>
<ellipse fill="#e8f0ff" stroke="#444444" cx="1867.11" cy="-457" rx="131.17" ry="30.58"/>
<text xml:space="preserve" text-anchor="middle" x="1867.11" y="-465.12" font-family="Helvetica,sans-Serif" font-size="10.00">dose_gates.py</text>
<text xml:space="preserve" text-anchor="middle" x="1867.11" y="-453.88" font-family="Helvetica,sans-Serif" font-size="10.00">class ceilings + absorption floor</text>
<text xml:space="preserve" text-anchor="middle" x="1867.11" y="-442.62" font-family="Helvetica,sans-Serif" font-size="10.00">→ data/snapshots/dose&#45;gate&#45;report.md</text>
</g>
<!-- sqlite&#45;&gt;gates -->
<g id="edge18" class="edge">
<title>sqlite&#45;&gt;gates</title>
<path fill="none" stroke="#555555" d="M1366.66,-438.65C1476.54,-442.69 1623.09,-448.07 1729,-451.96"/>
<polygon fill="#555555" stroke="#555555" points="1366.87,-436.21 1359.78,-438.4 1366.69,-441.1 1366.87,-436.21"/>
<polygon fill="#555555" stroke="#555555" points="1728.59,-454.4 1735.68,-452.21 1728.77,-449.5 1728.59,-454.4"/>
<text xml:space="preserve" text-anchor="middle" x="1449.57" y="-453.39" font-family="Helvetica,sans-Serif" font-size="8.50">after all ingest,</text>
<text xml:space="preserve" text-anchor="middle" x="1449.57" y="-444.39" font-family="Helvetica,sans-Serif" font-size="8.50">before dedup</text>
</g>
<!-- db -->
<g id="node21" class="node">
<title>db</title>
<polygon fill="#e6ffe6" stroke="#444444" points="1702.94,-321.88 1540.69,-321.88 1540.69,-280.12 1702.94,-280.12 1702.94,-321.88"/>
<text xml:space="preserve" text-anchor="middle" x="1621.82" y="-308.38" font-family="Helvetica,sans-Serif" font-size="10.00">Piru/Data/piru&#45;substances.sqlite</text>
<text xml:space="preserve" text-anchor="middle" x="1621.82" y="-297.12" font-family="Helvetica,sans-Serif" font-size="10.00">(gitignored, ~19 MB)</text>
<text xml:space="preserve" text-anchor="middle" x="1621.82" y="-285.88" font-family="Helvetica,sans-Serif" font-size="10.00">+ manifest.json (tracked, sha256)</text>
</g>
<!-- sqlite&#45;&gt;db -->
<g id="edge19" class="edge">
<title>sqlite&#45;&gt;db</title>
<path fill="none" stroke="#555555" d="M1330.06,-395.09C1399.9,-372.49 1486.43,-344.49 1546.85,-324.93"/>
<polygon fill="#555555" stroke="#555555" points="1547.49,-327.3 1553.39,-322.82 1545.98,-322.64 1547.49,-327.3"/>
</g>
<!-- snapshots -->
<g id="node24" class="node">
<title>snapshots</title>
<polygon fill="white" stroke="#444444" points="2653.58,-325.88 2476.33,-325.88 2476.33,-284.12 2653.58,-284.12 2653.58,-325.88"/>
<text xml:space="preserve" text-anchor="middle" x="2564.96" y="-312.38" font-family="Helvetica,sans-Serif" font-size="10.00">data/snapshots/</text>
<text xml:space="preserve" text-anchor="middle" x="2564.96" y="-301.12" font-family="Helvetica,sans-Serif" font-size="10.00">build&#45;report.md · substances.json</text>
<text xml:space="preserve" text-anchor="middle" x="2564.96" y="-289.88" font-family="Helvetica,sans-Serif" font-size="10.00">dose&#45;gate&#45;report.md (tracked mirrors)</text>
</g>
<!-- gates&#45;&gt;snapshots -->
<g id="edge23" class="edge">
<title>gates&#45;&gt;snapshots</title>
<path fill="none" stroke="#555555" stroke-dasharray="5,2" d="M1962.08,-478.31C1998.35,-486.53 2031.28,-494 2031.28,-494 2031.28,-494 2306.92,-494 2306.92,-494 2306.92,-494 2457.85,-383.02 2528.4,-331.14"/>
<polygon fill="#555555" stroke="#555555" points="2529.56,-333.33 2533.75,-327.21 2526.66,-329.38 2529.56,-333.33"/>
</g>
<!-- snaps -->
<g id="node19" class="node">
<title>snaps</title>
<ellipse fill="white" stroke="#444444" cx="2168.81" cy="-460" rx="128.52" ry="21.57"/>
<text xml:space="preserve" text-anchor="middle" x="2168.81" y="-461.75" font-family="Helvetica,sans-Serif" font-size="10.00">snapshots.py · signature_coverage.py</text>
<text xml:space="preserve" text-anchor="middle" x="2168.81" y="-450.5" font-family="Helvetica,sans-Serif" font-size="10.00">steps 7–8</text>
</g>
<!-- snaps&#45;&gt;snapshots -->
<g id="edge21" class="edge">
<title>snaps&#45;&gt;snapshots</title>
<path fill="none" stroke="#555555" d="M2242.38,-442C2275.27,-433.85 2306.92,-426 2306.92,-426 2306.92,-426 2435.8,-365.33 2511.04,-329.91"/>
<polygon fill="#555555" stroke="#555555" points="2511.94,-332.2 2517.23,-327 2509.85,-327.76 2511.94,-332.2"/>
</g>
<!-- tests -->
<g id="node20" class="node">
<title>tests</title>
<ellipse fill="white" stroke="#444444" cx="2168.81" cy="-392" rx="130.11" ry="21.57"/>
<text xml:space="preserve" text-anchor="middle" x="2168.81" y="-393.75" font-family="Helvetica,sans-Serif" font-size="10.00">7 build test files + validate_links &#45;&#45;gate</text>
<text xml:space="preserve" text-anchor="middle" x="2168.81" y="-382.5" font-family="Helvetica,sans-Serif" font-size="10.00">steps 9–10</text>
</g>
<!-- db&#45;&gt;snaps -->
<g id="edge20" class="edge">
<title>db&#45;&gt;snaps</title>
<path fill="none" stroke="#555555" d="M1664.94,-322.22C1697.1,-338.43 1735.94,-358 1735.94,-358 1735.94,-358 1958.95,-410.67 2084.46,-440.31"/>
<polygon fill="#555555" stroke="#555555" points="2083.74,-442.66 2091.11,-441.89 2084.86,-437.89 2083.74,-442.66"/>
</g>
<!-- db&#45;&gt;tests -->
<g id="edge22" class="edge">
<title>db&#45;&gt;tests</title>
<path fill="none" stroke="#555555" d="M1703.23,-314.43C1799.95,-330.58 1962.36,-357.69 2067.27,-375.21"/>
<polygon fill="#555555" stroke="#555555" points="2066.86,-377.63 2074.17,-376.36 2067.67,-372.8 2066.86,-377.63"/>
</g>
<!-- release -->
<g id="node22" class="node">
<title>release</title>
<polygon fill="white" stroke="#444444" points="2234.56,-251 2103.06,-251 2103.06,-215 2234.56,-215 2234.56,-251"/>
<text xml:space="preserve" text-anchor="middle" x="2168.81" y="-234.75" font-family="Helvetica,sans-Serif" font-size="10.00">GitHub `db` release tag</text>
<text xml:space="preserve" text-anchor="middle" x="2168.81" y="-223.5" font-family="Helvetica,sans-Serif" font-size="10.00">publish&#45;db.sh / fetch&#45;db.sh</text>
</g>
<!-- db&#45;&gt;release -->
<g id="edge24" class="edge">
<title>db&#45;&gt;release</title>
<path fill="none" stroke="#555555" d="M1703.23,-290.97C1808.78,-277.8 1992.56,-254.87 2094.47,-242.15"/>
<polygon fill="#555555" stroke="#555555" points="2094.73,-244.59 2101.37,-241.29 2094.12,-239.73 2094.73,-244.59"/>
<text xml:space="preserve" text-anchor="middle" x="1867.11" y="-287.24" font-family="Helvetica,sans-Serif" font-size="8.50">publish&#45;db.sh</text>
</g>
<!-- app -->
<g id="node23" class="node">
<title>app</title>
<polygon fill="#e6ffe6" stroke="#444444" points="2661.08,-259.5 2468.83,-259.5 2468.83,-206.5 2661.08,-206.5 2661.08,-259.5"/>
<text xml:space="preserve" text-anchor="middle" x="2564.96" y="-246" font-family="Helvetica,sans-Serif" font-size="10.00">Piru app</text>
<text xml:space="preserve" text-anchor="middle" x="2564.96" y="-234.75" font-family="Helvetica,sans-Serif" font-size="10.00">SubstanceReadModel resolves per field:</text>
<text xml:space="preserve" text-anchor="middle" x="2564.96" y="-223.5" font-family="Helvetica,sans-Serif" font-size="10.00">user source order × source_field_priority</text>
<text xml:space="preserve" text-anchor="middle" x="2564.96" y="-212.25" font-family="Helvetica,sans-Serif" font-size="10.00">× dose_context</text>
</g>
<!-- db&#45;&gt;app -->
<g id="edge26" class="edge">
<title>db&#45;&gt;app</title>
<path fill="none" stroke="#555555" d="M1703.36,-299.93C1813.69,-298.46 1998.28,-296 1998.28,-296 1998.28,-296 2406.09,-257 2406.09,-257 2406.09,-257 2430.65,-253.27 2460.4,-248.74"/>
<polygon fill="#555555" stroke="#555555" points="2460.44,-251.22 2466.99,-247.74 2459.7,-246.37 2460.44,-251.22"/>
<text xml:space="preserve" text-anchor="middle" x="2168.81" y="-293.67" font-family="Helvetica,sans-Serif" font-size="8.50">bundled</text>
</g>
<!-- db&#45;&gt;adjudicate -->
<g id="edge27" class="edge">
<title>db&#45;&gt;adjudicate</title>
<path fill="none" stroke="#555555" d="M1696.1,-279.72C1805.37,-248 1998.28,-192 1998.28,-192 1998.28,-192 2045.68,-174.94 2090.36,-158.87"/>
<polygon fill="#555555" stroke="#555555" points="2091.18,-161.17 2096.94,-156.5 2089.53,-156.56 2091.18,-161.17"/>
</g>
<!-- audits -->
<g id="node27" class="node">
<title>audits</title>
<ellipse fill="#eeeeee" stroke="#444444" cx="2168.81" cy="-46" rx="137.53" ry="29.52"/>
<text xml:space="preserve" text-anchor="middle" x="2168.81" y="-53.38" font-family="Helvetica,sans-Serif" font-size="10.00">compare_to_drugbank · compare_to_pw</text>
<text xml:space="preserve" text-anchor="middle" x="2168.81" y="-42.12" font-family="Helvetica,sans-Serif" font-size="10.00">dump_substance_library · dose_sanity</text>
<text xml:space="preserve" text-anchor="middle" x="2168.81" y="-30.88" font-family="Helvetica,sans-Serif" font-size="10.00">halflife_from_primary · verify_citations …</text>
</g>
<!-- db&#45;&gt;audits -->
<g id="edge30" class="edge">
<title>db&#45;&gt;audits</title>
<path fill="none" stroke="#555555" d="M1691.12,-279.69C1698.24,-277.47 1702.94,-276 1702.94,-276 1702.94,-276 1735.94,-249 1735.94,-249 1735.94,-249 1998.28,-154 1998.28,-154 1998.28,-154 2031.28,-88 2031.28,-88 2031.28,-88 2053.9,-81.04 2080.73,-72.79"/>
<polygon fill="#555555" stroke="#555555" points="2081.37,-75.15 2087.34,-70.75 2079.93,-70.47 2081.37,-75.15"/>
</g>
<!-- release&#45;&gt;app -->
<g id="edge25" class="edge">
<title>release&#45;&gt;app</title>
<path fill="none" stroke="#555555" d="M2234.9,-233C2296.16,-233 2388.92,-233 2460.36,-233"/>
<polygon fill="#555555" stroke="#555555" points="2460.01,-235.45 2467.01,-233 2460.01,-230.55 2460.01,-235.45"/>
<text xml:space="preserve" text-anchor="middle" x="2372.72" y="-242.93" font-family="Helvetica,sans-Serif" font-size="8.50">OTA update</text>
<text xml:space="preserve" text-anchor="middle" x="2372.72" y="-233.93" font-family="Helvetica,sans-Serif" font-size="8.50">(manifest sha256)</text>
</g>
<!-- ci -->
<g id="node28" class="node">
<title>ci</title>
<polygon fill="#eeeeee" stroke="#444444" points="280.25,-109.88 67,-109.88 67,-68.12 280.25,-68.12 280.25,-109.88"/>
<text xml:space="preserve" text-anchor="middle" x="173.62" y="-96.38" font-family="Helvetica,sans-Serif" font-size="10.00">CI (.github/workflows/ci.yml)</text>
<text xml:space="preserve" text-anchor="middle" x="173.62" y="-85.12" font-family="Helvetica,sans-Serif" font-size="10.00">fetches the DB, runs 9 audit gates + 21 tests</text>
<text xml:space="preserve" text-anchor="middle" x="173.62" y="-73.88" font-family="Helvetica,sans-Serif" font-size="10.00">never builds</text>
</g>
<!-- release&#45;&gt;ci -->
<g id="edge31" class="edge">
<title>release&#45;&gt;ci</title>
<path fill="none" stroke="#555555" d="M2102.68,-228.29C1815.34,-207.54 659,-123.99 289.06,-97.27"/>
<polygon fill="#555555" stroke="#555555" points="289.4,-94.84 282.24,-96.77 289.05,-99.72 289.4,-94.84"/>
<text xml:space="preserve" text-anchor="middle" x="1011.72" y="-151.8" font-family="Helvetica,sans-Serif" font-size="8.50">fetch&#45;db.sh</text>
</g>
<!-- upstream -->
<g id="node26" class="node">
<title>upstream</title>
<ellipse fill="#eeeeee" stroke="#444444" cx="2564.96" cy="-131" rx="125.87" ry="30.58"/>
<text xml:space="preserve" text-anchor="middle" x="2564.96" y="-139.12" font-family="Helvetica,sans-Serif" font-size="10.00">upstream_report.py</text>
<text xml:space="preserve" text-anchor="middle" x="2564.96" y="-127.88" font-family="Helvetica,sans-Serif" font-size="10.00">defect report per source</text>
<text xml:space="preserve" text-anchor="middle" x="2564.96" y="-116.62" font-family="Helvetica,sans-Serif" font-size="10.00">→ Specs/evidence/upstream&#45;reports/</text>
</g>
<!-- adjudicate&#45;&gt;upstream -->
<g id="edge29" class="edge">
<title>adjudicate&#45;&gt;upstream</title>
<path fill="none" stroke="#555555" d="M2288.6,-131C2333.4,-131 2384.64,-131 2430.68,-131"/>
<polygon fill="#555555" stroke="#555555" points="2430.4,-133.45 2437.4,-131 2430.4,-128.55 2430.4,-133.45"/>
</g>
<!-- upstream&#45;&gt;curated -->
<g id="edge32" class="edge">
<title>upstream&#45;&gt;curated</title>
<path fill="none" stroke="#555555" stroke-dasharray="5,2" d="M2507.87,-103.29C2432.24,-65.92 2306.92,-4 2306.92,-4 2306.92,-4 2031.28,-4 2031.28,-4 2031.28,-4 1358.44,-237 1358.44,-237 1358.44,-237 991.1,-356 991.1,-356 991.1,-356 699.35,-537 699.35,-537 699.35,-537 668.72,-542.98 634.82,-549.61"/>
<polygon fill="#555555" stroke="#555555" points="634.5,-547.17 628.1,-550.92 635.44,-551.98 634.5,-547.17"/>
<text xml:space="preserve" text-anchor="middle" x="1449.57" y="-234.82" font-family="Helvetica,sans-Serif" font-size="8.50">findings become</text>
<text xml:space="preserve" text-anchor="middle" x="1449.57" y="-225.82" font-family="Helvetica,sans-Serif" font-size="8.50">exceptions / gates / corrections</text>
</g>
<!-- audits&#45;&gt;curated -->
<g id="edge33" class="edge">
<title>audits&#45;&gt;curated</title>
<path fill="none" stroke="#555555" stroke-dasharray="5,2" d="M2071.49,-67.19C1753.65,-137.09 758.35,-356 758.35,-356 758.35,-356 699.35,-537 699.35,-537 699.35,-537 668.72,-542.98 634.82,-549.61"/>
<polygon fill="#555555" stroke="#555555" points="634.5,-547.17 628.1,-550.92 635.44,-551.98 634.5,-547.17"/>
</g>
<!-- dead -->
<g id="node29" class="node">
<title>dead</title>
<polygon fill="#fff0f0" stroke="#c03030" points="331.25,-1278.12 16,-1278.12 16,-1213.88 331.25,-1213.88 331.25,-1278.12"/>
<text xml:space="preserve" text-anchor="middle" x="173.62" y="-1264.62" font-family="Helvetica,sans-Serif" font-size="10.00" fill="#c03030">source_link_check.py (1,738 lines, working &#45;&#45;gate)</text>
<text xml:space="preserve" text-anchor="middle" x="173.62" y="-1253.38" font-family="Helvetica,sans-Serif" font-size="10.00" fill="#c03030">apply_citation_fixes.py + 4 citation&#45;*&#45;2026&#45;08&#45;04 inputs</text>
<text xml:space="preserve" text-anchor="middle" x="173.62" y="-1242.12" font-family="Helvetica,sans-Serif" font-size="10.00" fill="#c03030">validate_metabolites.py · fix_enrichment_inchikeys.py</text>
<text xml:space="preserve" text-anchor="middle" x="173.62" y="-1230.88" font-family="Helvetica,sans-Serif" font-size="10.00" fill="#c03030">freeodwiki_translate.py · drug&#45;community&#45;{names,combinations}.json</text>
<text xml:space="preserve" text-anchor="middle" x="173.62" y="-1219.62" font-family="Helvetica,sans-Serif" font-size="10.00" fill="#c03030">sqlite.py dose_context_for()</text>
</g>
<!-- legend -->
<g id="node30" class="node">
<title>legend</title>
<polygon fill="#fafafa" stroke="#444444" points="283.62,-1367.5 57.62,-1367.5 57.62,-1314.5 289.62,-1314.5 289.62,-1361.5 283.62,-1367.5"/>
<polyline fill="none" stroke="#444444" points="283.62,-1367.5 283.62,-1361.5"/>
<polyline fill="none" stroke="#444444" points="289.62,-1361.5 283.62,-1361.5"/>
<text xml:space="preserve" text-anchor="middle" x="173.62" y="-1354" font-family="Helvetica,sans-Serif" font-size="10.00">Legend</text>
<text xml:space="preserve" text-anchor="middle" x="173.62" y="-1342.75" font-family="Helvetica,sans-Serif" font-size="10.00">box = file/data · ellipse = script</text>
<text xml:space="preserve" text-anchor="middle" x="173.62" y="-1331.5" font-family="Helvetica,sans-Serif" font-size="10.00">blue = build path · yellow = hand&#45;authored</text>
<text xml:space="preserve" text-anchor="middle" x="173.62" y="-1320.25" font-family="Helvetica,sans-Serif" font-size="10.00">green = shipped · gray = run by hand · red = dead</text>
</g>
</g>
</svg>
